<svg width="75" height="67" viewBox="0 0 75 67" fill="none" xmlns="http://www.w3.org/2000/svg">
<path d="M65.0637 1.30838C64.6667 2.12918 63.211 5.78173 61.8436 9.39325C60.432 13.0048 59.1528 16.2469 59.0205 16.6163C58.7999 17.0677 59.1969 17.4371 60.2997 17.9295C61.1819 18.2989 61.9759 18.6272 62.0641 18.6272C62.7699 18.6272 72.4302 5.61758 72.4302 4.67366C72.4302 3.72974 69.0778 0.939025 67.181 0.282386C65.7694 -0.210093 65.7253 -0.169053 65.0637 1.30838ZM69.2983 2.21126C71.4598 3.6887 71.8568 4.38638 71.1951 5.74069C70.7981 6.52045 70.357 6.72565 69.0337 6.68461H67.3574L69.2983 5.86381C70.357 5.41238 71.1069 4.96094 70.9745 4.83782C70.6658 4.5095 64.9313 6.76669 64.9313 7.21813C64.9313 7.34125 66.0782 7.38229 67.4898 7.25917C70.4452 7.05397 69.96 7.62853 66.6076 8.40829C65.4166 8.65453 64.4902 9.02389 64.4902 9.22909C64.4902 9.80365 65.9459 9.63949 66.8722 8.98285C67.8427 8.28517 69.563 8.16205 69.1219 8.77765C68.9895 8.98285 68.372 9.18805 67.7985 9.18805C67.2251 9.18805 66.6076 9.39325 66.4311 9.63949C66.2106 10.0088 66.4752 10.0499 67.3133 9.84469L68.5043 9.55741L66.8281 11.7325C65.8577 12.8816 64.799 13.9076 64.4461 14.0308C64.0932 14.1128 64.3138 13.7845 64.9313 13.3331C65.8577 12.6354 65.9018 12.4712 65.2401 12.4712C64.799 12.4712 64.5784 12.266 64.7108 12.0608C65.0196 11.6094 64.4461 11.5273 63.4316 11.8967C62.5052 12.225 62.5493 12.8816 63.5198 12.8816C64.005 12.9227 63.8286 13.1279 62.9463 13.5793L61.623 14.277L62.7258 14.5643C63.3433 14.7284 63.6521 14.8926 63.3875 14.8926C63.1669 14.9336 63.2551 15.1388 63.608 15.3851C64.1373 15.7134 64.0491 15.7544 63.2992 15.5492C62.7258 15.4261 61.8436 15.4261 61.3142 15.5903L60.2997 15.9186L61.4025 16.1648C62.5935 16.4521 62.9022 17.396 61.8436 17.7243C61.2701 17.9295 61.2701 17.8475 61.7995 17.2729C62.3288 16.6573 62.2406 16.6163 61.0055 16.8215C59.638 17.1088 59.638 17.0677 60.1232 15.9186C60.7849 14.3591 63.9609 6.23317 64.799 3.85286C66.0341 0.528626 66.5193 0.364466 69.2983 2.21126Z" fill="white"/>
<path d="M64.4902 10.4193C63.9168 10.7886 63.9168 10.8707 64.4902 11.24C65.3724 11.8146 66.4752 11.5684 66.4752 10.8297C66.4752 10.0909 65.3724 9.84469 64.4902 10.4193Z" fill="white"/>
<path d="M72.6508 15.303C71.8127 15.6313 67.6662 19.2428 65.6371 21.4179C64.799 22.2798 64.799 22.3619 65.6371 23.1827C66.2988 23.8393 66.3429 24.1676 65.9018 24.7832C65.0196 26.1375 65.2842 26.0554 68.372 24.1676C74.4152 20.474 74.8563 20.1047 74.9887 18.7503C75.121 17.7243 74.0623 14.8516 73.6212 14.9747C73.5771 14.9747 73.136 15.1388 72.6508 15.303ZM73.93 16.6983C74.5475 17.5602 74.327 17.7243 71.9891 18.0527L70.0041 18.3399L71.3274 17.0267C72.6949 15.6723 73.1801 15.5903 73.93 16.6983ZM70.0041 19.7763C69.3866 19.8584 68.9013 20.1867 68.9013 20.5151C68.9013 20.8434 68.6808 21.0896 68.4161 21.0896C68.1956 21.0896 68.1073 21.2538 68.2397 21.5C68.372 21.7052 68.2397 21.9104 67.8868 21.9104C67.5339 21.9104 67.0928 22.2387 66.9605 22.6081C66.7399 23.1006 66.5635 23.1827 66.1665 22.8133C65.7695 22.4439 66.0782 21.8694 67.5339 20.5151C69.2101 18.9145 69.563 18.7503 70.3129 19.1607C71.1069 19.6122 71.0628 19.6532 70.0041 19.7763ZM74.3711 19.2428C74.0182 20.0636 69.4307 22.8133 68.769 22.6081C68.4602 22.485 68.5926 22.3619 69.0337 22.3619C69.4748 22.3208 69.6953 22.1156 69.563 21.9104C69.4307 21.6642 69.7394 21.5 70.3129 21.5L71.3274 21.459L70.2247 20.8844C69.1219 20.3509 69.166 20.3099 71.1069 20.1867L73.0919 20.0636L71.7686 19.3659L70.4452 18.6683L72.5184 18.6272C74.1947 18.6272 74.5475 18.7503 74.3711 19.2428Z" fill="white"/>
<path d="M24.5257 19.8174C22.8054 20.8023 22.3201 22.0335 21.7026 26.63C21.1291 31.1854 21.3938 43.1281 22.0555 43.7437C22.8936 44.5234 23.0259 43.4153 23.2024 34.0172C23.2906 28.682 23.5552 24.3318 23.864 23.4289C24.5257 21.459 26.0696 20.7203 27.7017 21.5C29.7749 22.5671 29.8631 23.1006 29.7749 33.4837C29.6867 41.4454 29.7749 43.2512 30.2601 43.2512C30.613 43.2512 31.01 42.9639 31.1423 42.5945C31.2747 42.2252 31.407 37.6697 31.407 32.4577C31.407 21.7463 31.2306 21.0486 28.1869 19.7353C26.246 18.8735 26.2019 18.8735 24.5257 19.8174Z" fill="white"/>
<path d="M57.4766 19.9815C56.5502 22.2387 56.5502 22.9364 57.4766 23.9624L58.4029 24.9474L59.6821 23.552C61.2701 21.7463 61.2701 21.2948 59.7703 20.3919C59.0646 19.9815 58.4029 19.4891 58.2265 19.2839C58.05 19.0376 57.6971 19.3659 57.4766 19.9815ZM59.5498 21.0486C59.9909 21.2948 59.8586 21.459 58.9763 21.6642C58.1824 21.8694 57.8736 22.1567 58.05 22.526C58.1824 22.8543 58.0941 23.1416 57.8736 23.1416C57.3884 23.1416 57.3001 22.2798 57.6971 21.3359C58.0059 20.5971 58.6676 20.5151 59.5498 21.0486Z" fill="white"/>
<path d="M40.538 20.7613C38.9059 22.2798 38.4648 25.1936 38.4648 34.2224C38.4648 42.6766 38.5971 43.6616 39.6116 43.6616C40.141 43.6616 40.2292 42.02 40.2292 34.2224C40.2292 21.9515 40.5821 21.0486 44.5962 22.3619C45.4343 22.6491 46.1842 23.2647 46.4488 23.8803C47.0223 25.3167 46.9782 32.3756 46.3606 37.3004C45.6107 43.1281 45.6107 43.8668 46.4047 43.8668C47.3311 43.8668 48.0809 39.4345 48.4338 31.5548C48.6544 26.5069 48.5662 24.6191 48.1251 23.3879C47.4634 21.5821 45.8754 20.5151 43.2287 20.0636C41.8613 19.8174 41.4202 19.9405 40.538 20.7613Z" fill="white"/>
<path d="M62.3288 24.537C61.2701 25.563 61.5789 26.0965 62.6376 25.1115C63.5198 24.2907 63.7403 25.0705 62.9022 25.9734C62.3288 26.589 62.02 26.671 61.7554 26.3017C61.4907 25.9323 61.4025 25.9734 61.4025 26.4248C61.4025 26.7531 61.623 27.3277 61.8436 27.656C62.1965 28.1895 62.4611 28.1074 63.4757 27.1635C64.6226 26.0965 64.6226 25.9734 64.005 24.7832L63.3875 23.511L62.3288 24.537Z" fill="white"/>
<path d="M12.4834 26.4248C13.101 27.9843 12.7922 28.7641 11.4689 28.9693C10.8072 29.0514 10.4984 29.3386 10.6307 29.708C10.719 30.0363 10.8954 30.9392 11.0277 31.6369C11.2042 32.786 11.0277 33.0322 10.0573 33.4016C9.39564 33.6068 7.36653 33.6889 5.46976 33.5658C2.11733 33.3606 2.07322 33.3606 3.17599 34.0993C5.55798 35.7409 6.74898 36.8489 7.41064 37.9981C8.46931 39.8859 7.49886 40.8709 3.39654 42.1021C1.54388 42.6356 0 43.2512 0 43.4564C0 43.7026 0.92633 44.1951 2.0291 44.5645C3.17599 44.9338 4.4111 45.4673 4.76398 45.7136C5.60209 46.3702 5.55798 48.9968 4.67576 50.1459C3.74943 51.4181 4.05821 51.5823 5.73443 50.8025C7.76353 49.8996 8.64575 50.1869 8.91042 51.8696C9.13097 53.1828 9.21919 53.2239 9.52797 52.362C9.74852 51.7464 9.61619 51.0898 9.17508 50.4332C8.38108 49.284 8.11642 49.243 6.57253 49.7765C5.51387 50.1869 5.46976 50.1459 5.86676 48.7916C6.61665 46.3292 5.55798 45.098 1.63211 43.8668C0.970441 43.6616 1.45566 43.3743 3.79354 42.6356C9.04275 41.035 9.79264 38.7778 6.08731 35.6177L4.14643 33.9762L6.52842 34.1403C10.8072 34.4686 12.5275 33.4016 11.6012 30.9392C11.2483 29.9132 11.2924 29.708 12.0423 29.5028C13.2774 29.1334 13.8508 27.9022 13.3656 26.7121C12.704 25.1526 11.9541 24.9063 12.4834 26.4248Z" fill="white"/>
<path d="M66.3429 36.5617C66.0782 36.9721 65.8577 37.6697 65.8136 38.1212C65.5048 40.5836 66.2988 41.1171 68.6367 39.968C69.5189 39.5576 70.2247 39.3113 70.2247 39.3934C70.2247 39.4755 69.6071 40.3373 68.9013 41.2813C67.3574 43.2512 67.3133 44.8517 68.769 45.5084C69.7394 45.9598 69.7394 45.9598 68.4602 46.6985C66.8722 47.5604 66.2988 49.1609 67.2692 50.1459C67.7544 50.6384 67.8427 51.0488 67.5339 51.5412C67.2251 52.0748 67.4457 52.4441 68.5043 53.2239L69.9159 54.2499L68.1514 54.1678C65.8577 54.1267 64.799 54.9475 65.0637 56.5071C65.196 57.5331 65.1078 57.6562 64.2256 57.451C63.1669 57.2047 61.8436 58.0666 61.8436 59.0105C61.8436 60.3238 64.3138 65.2896 64.7549 64.8792C64.8872 64.7971 64.4461 63.7301 63.8286 62.4989C62.417 59.6261 62.3729 58.0255 63.7403 58.0255C64.2697 58.0255 65.0196 58.1897 65.3724 58.3949C66.4311 59.0515 66.6958 58.477 65.9018 57.2458C64.8431 55.4811 65.6812 54.7423 68.7249 54.7423C70.0482 54.7423 71.1069 54.5371 71.1069 54.3319C71.1069 54.0857 70.9745 53.9215 70.7981 53.9215C70.5775 53.9215 69.8718 53.4701 69.1219 52.9366C67.8427 51.9516 67.8427 51.9106 68.6367 51.336C69.4748 50.7615 69.4748 50.7204 68.5484 50.269C66.6076 49.3251 67.7103 47.5193 71.3274 45.7956L73.0919 44.9338L70.754 44.8928C67.6221 44.8928 67.4898 44.2772 69.7394 41.0761C70.7099 39.6807 71.3715 38.4905 71.151 38.4085C70.9304 38.3264 70.0923 38.6547 69.2983 39.1061C67.2251 40.2963 66.2547 40.2142 66.2547 38.9009C66.2547 38.3264 66.4752 37.5056 66.7399 37.0131C67.0046 36.5617 67.0928 36.1102 67.0046 35.9871C66.8722 35.905 66.5634 36.1513 66.3429 36.5617Z" fill="white"/>
<path d="M33.3479 42.5945C32.9068 43.6205 33.5684 44.072 35.4211 44.072C37.0091 44.072 37.1855 43.9899 37.0532 43.1281C36.965 42.3893 36.6121 42.1841 35.2447 42.1021C34.0978 42.02 33.5243 42.1431 33.3479 42.5945Z" fill="white"/>
<path d="M46.6253 46.124C46.4489 46.4112 46.493 47.3141 46.7576 48.1349C47.6399 50.9256 48.6103 55.1117 48.6103 56.1787C48.6103 56.7943 47.9927 57.8614 47.0664 58.8053C45.4784 60.4469 45.0814 61.7191 46.1401 61.7191C46.9782 61.7191 49.8454 58.6822 50.1983 57.4099C50.5071 56.2608 50.3747 55.4811 49.1396 50.31C48.3015 46.8627 47.287 45.139 46.6253 46.124Z" fill="white"/>
<path d="M20.7763 47.232C20.5116 47.8887 19.8058 49.6534 19.2324 51.254C18.1737 54.0036 18.1737 54.1678 18.8795 56.3429C19.7617 59.1336 21.5703 62.1295 22.4084 62.1295C23.3347 62.1295 23.1583 60.9804 21.9673 59.0926C19.7617 55.5221 19.6735 54.6603 21.2615 50.5973C22.0114 48.5864 22.5407 46.7806 22.3643 46.5344C21.879 45.7956 21.2615 46.0829 20.7763 47.232Z" fill="white"/>
<path d="M29.025 51.1308C28.4957 52.6493 28.4957 53.9626 29.025 54.373C29.7749 54.9475 30.613 53.4701 30.4366 51.9927C30.3042 50.8025 29.3338 50.228 29.025 51.1308Z" fill="white"/>
<path d="M38.9941 53.7984C39.1264 55.4811 40.0086 56.0556 40.4498 54.7834C40.8468 53.6343 40.3174 52.28 39.5234 52.28C39.0382 52.28 38.9059 52.6493 38.9941 53.7984Z" fill="white"/>
<path d="M33.6125 54.332C33.6125 54.7834 33.9213 55.1528 34.2742 55.1528C34.6271 55.1528 34.9359 54.7834 34.9359 54.332C34.9359 53.8805 34.6271 53.5112 34.2742 53.5112C33.9213 53.5112 33.6125 53.8805 33.6125 54.332Z" fill="white"/>
<path d="M25.9372 62.9093C25.5402 63.4839 26.0696 64.5098 26.9077 64.7971C27.3047 64.9613 29.025 65.5358 30.7012 66.0694C35.6858 67.6699 41.5966 67.1364 41.9054 65.0023C42.0377 64.2226 41.9054 64.0994 41.0232 64.3046C35.5534 65.5358 35.9504 65.5358 31.9363 64.3867C29.819 63.7711 27.9222 63.1145 27.7017 62.9093C27.1282 62.4168 26.246 62.4168 25.9372 62.9093Z" fill="white"/>
</svg>
